<?xml version="1.0" encoding="UTF-8" standalone="no"?><svg xmlns="http://www.w3.org/2000/svg" xmlns:xlink="http://www.w3.org/1999/xlink" contentScriptType="application/ecmascript" contentStyleType="text/css" height="466px" preserveAspectRatio="none" style="width:412px;height:466px;" version="1.1" viewBox="0 0 412 466" width="412px" zoomAndPan="magnify"><defs><filter height="300%" id="f1sr4fq3isfkjk" width="300%" x="-1" y="-1"><feGaussianBlur result="blurOut" stdDeviation="2.0"/><feColorMatrix in="blurOut" result="blurOut2" type="matrix" values="0 0 0 0 0 0 0 0 0 0 0 0 0 0 0 0 0 0 .4 0"/><feOffset dx="4.0" dy="4.0" in="blurOut2" result="blurOut3"/><feBlend in="SourceGraphic" in2="blurOut3" mode="normal"/></filter></defs><g><!--cluster aleatorio--><polygon fill="#FFFFFF" filter="url(#f1sr4fq3isfkjk)" points="22,79.5,90,79.5,97,103.1094,180,103.1094,180,193.5,22,193.5,22,79.5" style="stroke: #000000; stroke-width: 1.5;"/><line style="stroke: #000000; stroke-width: 1.5;" x1="22" x2="97" y1="103.1094" y2="103.1094"/><text fill="#000000" font-family="sans-serif" font-size="14" font-weight="bold" lengthAdjust="spacingAndGlyphs" textLength="62" x="26" y="96.0332">aleatorio</text><!--cluster racional--><polygon fill="#FFFFFF" filter="url(#f1sr4fq3isfkjk)" points="204,24,266,24,273,47.6094,390,47.6094,390,454,204,454,204,24" style="stroke: #000000; stroke-width: 1.5;"/><line style="stroke: #000000; stroke-width: 1.5;" x1="204" x2="273" y1="47.6094" y2="47.6094"/><text fill="#000000" font-family="sans-serif" font-size="14" font-weight="bold" lengthAdjust="spacingAndGlyphs" textLength="56" x="208" y="40.5332">racional</text><!--class NumeroAleatorio--><rect fill="#FEFECE" filter="url(#f1sr4fq3isfkjk)" height="61.8359" id="NumeroAleatorio" style="stroke: #A80036; stroke-width: 1.5;" width="125" x="38.5" y="115.5"/><ellipse cx="53.5" cy="131.5" fill="#ADD1B2" rx="11" ry="11" style="stroke: #A80036; stroke-width: 1.0;"/><path d="M56.2656,127.375 Q56.4219,127.1563 56.6094,127.0469 Q56.7969,126.9375 57.0156,126.9375 Q57.3906,126.9375 57.625,127.1953 Q57.8594,127.4531 57.8594,128.0625 L57.8594,129.5156 Q57.8594,130.125 57.625,130.3906 Q57.3906,130.6563 57.0156,130.6563 Q56.6719,130.6563 56.4688,130.4531 Q56.2656,130.2656 56.1563,129.75 Q56.1094,129.3906 55.9219,129.2031 Q55.5938,128.8281 54.9844,128.6094 Q54.375,128.3906 53.75,128.3906 Q52.9844,128.3906 52.3516,128.7188 Q51.7188,129.0469 51.2266,129.7969 Q50.7344,130.5469 50.7344,131.5781 L50.7344,132.6719 Q50.7344,133.9063 51.625,134.7266 Q52.5156,135.5469 54.1094,135.5469 Q55.0469,135.5469 55.7031,135.2969 Q56.0938,135.1406 56.5156,134.7031 Q56.7813,134.4375 56.9297,134.3594 Q57.0781,134.2813 57.2813,134.2813 Q57.6094,134.2813 57.8672,134.5391 Q58.125,134.7969 58.125,135.1406 Q58.125,135.4844 57.7813,135.8906 Q57.2813,136.4688 56.4844,136.7969 Q55.4063,137.25 54.1094,137.25 Q52.5938,137.25 51.3906,136.625 Q50.4063,136.125 49.7188,135.0547 Q49.0313,133.9844 49.0313,132.7031 L49.0313,131.5469 Q49.0313,130.2188 49.6484,129.0703 Q50.2656,127.9219 51.3594,127.3047 Q52.4531,126.6875 53.6875,126.6875 Q54.4219,126.6875 55.0703,126.8516 Q55.7188,127.0156 56.2656,127.375 Z "/><text fill="#000000" font-family="sans-serif" font-size="12" lengthAdjust="spacingAndGlyphs" textLength="93" x="67.5" y="136.4102">NumeroAleatorio</text><line style="stroke: #A80036; stroke-width: 1.5;" x1="39.5" x2="162.5" y1="147.5" y2="147.5"/><line style="stroke: #A80036; stroke-width: 1.5;" x1="39.5" x2="162.5" y1="155.5" y2="155.5"/><text fill="#000000" font-family="sans-serif" font-size="11" lengthAdjust="spacingAndGlyphs" text-decoration="underline" textLength="86" x="44.5" y="170.9189">+getAleatorio():int</text><line style="stroke: #000000; stroke-width: 1.0;" x1="44.5" x2="130.5" y1="172.9189" y2="172.9189"/><!--class NumeroRacional--><rect fill="#FEFECE" filter="url(#f1sr4fq3isfkjk)" height="172.5234" id="NumeroRacional" style="stroke: #A80036; stroke-width: 1.5;" width="153" x="220.5" y="60"/><ellipse cx="247.65" cy="76" fill="#ADD1B2" rx="11" ry="11" style="stroke: #A80036; stroke-width: 1.0;"/><path d="M250.4156,71.875 Q250.5719,71.6563 250.7594,71.5469 Q250.9469,71.4375 251.1656,71.4375 Q251.5406,71.4375 251.775,71.6953 Q252.0094,71.9531 252.0094,72.5625 L252.0094,74.0156 Q252.0094,74.625 251.775,74.8906 Q251.5406,75.1563 251.1656,75.1563 Q250.8219,75.1563 250.6188,74.9531 Q250.4156,74.7656 250.3063,74.25 Q250.2594,73.8906 250.0719,73.7031 Q249.7438,73.3281 249.1344,73.1094 Q248.525,72.8906 247.9,72.8906 Q247.1344,72.8906 246.5016,73.2188 Q245.8688,73.5469 245.3766,74.2969 Q244.8844,75.0469 244.8844,76.0781 L244.8844,77.1719 Q244.8844,78.4063 245.775,79.2266 Q246.6656,80.0469 248.2594,80.0469 Q249.1969,80.0469 249.8531,79.7969 Q250.2438,79.6406 250.6656,79.2031 Q250.9313,78.9375 251.0797,78.8594 Q251.2281,78.7813 251.4313,78.7813 Q251.7594,78.7813 252.0172,79.0391 Q252.275,79.2969 252.275,79.6406 Q252.275,79.9844 251.9313,80.3906 Q251.4313,80.9688 250.6344,81.2969 Q249.5563,81.75 248.2594,81.75 Q246.7438,81.75 245.5406,81.125 Q244.5563,80.625 243.8688,79.5547 Q243.1813,78.4844 243.1813,77.2031 L243.1813,76.0469 Q243.1813,74.7188 243.7984,73.5703 Q244.4156,72.4219 245.5094,71.8047 Q246.6031,71.1875 247.8375,71.1875 Q248.5719,71.1875 249.2203,71.3516 Q249.8688,71.5156 250.4156,71.875 Z "/><text fill="#000000" font-family="sans-serif" font-size="12" lengthAdjust="spacingAndGlyphs" textLength="94" x="264.35" y="80.9102">NumeroRacional</text><line style="stroke: #A80036; stroke-width: 1.5;" x1="221.5" x2="372.5" y1="92" y2="92"/><text fill="#000000" font-family="sans-serif" font-size="11" lengthAdjust="spacingAndGlyphs" textLength="70" x="226.5" y="107.4189">-numerador:int</text><text fill="#000000" font-family="sans-serif" font-size="11" lengthAdjust="spacingAndGlyphs" textLength="80" x="226.5" y="121.2549">-denominador:int</text><line style="stroke: #A80036; stroke-width: 1.5;" x1="221.5" x2="372.5" y1="127.6719" y2="127.6719"/><text fill="#000000" font-family="sans-serif" font-size="11" lengthAdjust="spacingAndGlyphs" textLength="92" x="226.5" y="143.0908">+NumeroRacional()</text><text fill="#000000" font-family="sans-serif" font-size="11" lengthAdjust="spacingAndGlyphs" textLength="117" x="226.5" y="156.9268">+NumeroRacional(int int)</text><text fill="#000000" font-family="sans-serif" font-size="11" lengthAdjust="spacingAndGlyphs" textLength="88" x="226.5" y="170.7627">-getMDC(int int):int</text><text fill="#000000" font-family="sans-serif" font-size="11" lengthAdjust="spacingAndGlyphs" textLength="83" x="226.5" y="184.5986">-simplificar():void</text><text fill="#000000" font-family="sans-serif" font-size="11" lengthAdjust="spacingAndGlyphs" textLength="141" x="226.5" y="198.4346">+soma(NumeroRacional):void</text><text fill="#000000" font-family="sans-serif" font-size="11" lengthAdjust="spacingAndGlyphs" textLength="88" x="226.5" y="212.2705">+getString():String</text><text fill="#000000" font-family="sans-serif" font-size="11" lengthAdjust="spacingAndGlyphs" textLength="0" x="229.5" y="226.1064"/><!--class MatrizRacional--><rect fill="#FEFECE" filter="url(#f1sr4fq3isfkjk)" height="144.8516" id="MatrizRacional" style="stroke: #A80036; stroke-width: 1.5;" width="142" x="226" y="293"/><ellipse cx="254.5" cy="309" fill="#ADD1B2" rx="11" ry="11" style="stroke: #A80036; stroke-width: 1.0;"/><path d="M257.2656,304.875 Q257.4219,304.6563 257.6094,304.5469 Q257.7969,304.4375 258.0156,304.4375 Q258.3906,304.4375 258.625,304.6953 Q258.8594,304.9531 258.8594,305.5625 L258.8594,307.0156 Q258.8594,307.625 258.625,307.8906 Q258.3906,308.1563 258.0156,308.1563 Q257.6719,308.1563 257.4688,307.9531 Q257.2656,307.7656 257.1563,307.25 Q257.1094,306.8906 256.9219,306.7031 Q256.5938,306.3281 255.9844,306.1094 Q255.375,305.8906 254.75,305.8906 Q253.9844,305.8906 253.3516,306.2188 Q252.7188,306.5469 252.2266,307.2969 Q251.7344,308.0469 251.7344,309.0781 L251.7344,310.1719 Q251.7344,311.4063 252.625,312.2266 Q253.5156,313.0469 255.1094,313.0469 Q256.0469,313.0469 256.7031,312.7969 Q257.0938,312.6406 257.5156,312.2031 Q257.7813,311.9375 257.9297,311.8594 Q258.0781,311.7813 258.2813,311.7813 Q258.6094,311.7813 258.8672,312.0391 Q259.125,312.2969 259.125,312.6406 Q259.125,312.9844 258.7813,313.3906 Q258.2813,313.9688 257.4844,314.2969 Q256.4063,314.75 255.1094,314.75 Q253.5938,314.75 252.3906,314.125 Q251.4063,313.625 250.7188,312.5547 Q250.0313,311.4844 250.0313,310.2031 L250.0313,309.0469 Q250.0313,307.7188 250.6484,306.5703 Q251.2656,305.4219 252.3594,304.8047 Q253.4531,304.1875 254.6875,304.1875 Q255.4219,304.1875 256.0703,304.3516 Q256.7188,304.5156 257.2656,304.875 Z "/><text fill="#000000" font-family="sans-serif" font-size="12" lengthAdjust="spacingAndGlyphs" textLength="80" x="271.5" y="313.9102">MatrizRacional</text><line style="stroke: #A80036; stroke-width: 1.5;" x1="227" x2="367" y1="325" y2="325"/><text fill="#000000" font-family="sans-serif" font-size="11" lengthAdjust="spacingAndGlyphs" textLength="126" x="232" y="340.4189">-matriz[][]:NumeroRacional</text><text fill="#000000" font-family="sans-serif" font-size="11" lengthAdjust="spacingAndGlyphs" text-decoration="underline" textLength="59" x="232" y="354.2549">-tamanho:int</text><line style="stroke: #000000; stroke-width: 1.0;" x1="232" x2="291" y1="356.2549" y2="356.2549"/><line style="stroke: #A80036; stroke-width: 1.5;" x1="227" x2="367" y1="360.6719" y2="360.6719"/><text fill="#000000" font-family="sans-serif" font-size="11" lengthAdjust="spacingAndGlyphs" textLength="43" x="232" y="376.0908">+Matriz()</text><text fill="#000000" font-family="sans-serif" font-size="11" lengthAdjust="spacingAndGlyphs" textLength="68" x="232" y="389.9268">+Matriz(int int)</text><text fill="#000000" font-family="sans-serif" font-size="11" lengthAdjust="spacingAndGlyphs" textLength="63" x="232" y="403.7627">+soma():void</text><text fill="#000000" font-family="sans-serif" font-size="11" lengthAdjust="spacingAndGlyphs" textLength="73" x="232" y="417.5986">+imprimir():void</text><text fill="#000000" font-family="sans-serif" font-size="11" lengthAdjust="spacingAndGlyphs" textLength="130" x="232" y="431.4346">+preencherAleatorio():void</text><!--link NumeroRacional to MatrizRacional--><path d="M297,246.37 C297,262.083 297,278.067 297,292.99 " fill="none" id="NumeroRacional-MatrizRacional" style="stroke: #A80036; stroke-width: 1.0;"/><polygon fill="#FFFFFF" points="297,233.264,293,239.264,297,245.264,301,239.264,297,233.264" style="stroke: #A80036; stroke-width: 1.0;"/><!--
@startuml
skinparam classAttributeIconSize 0

package "aleatorio"{
    class NumeroAleatorio
}

package "racional"{
    class NumeroRacional
    class MatrizRacional
}

NumeroRacional o- - MatrizRacional

class NumeroAleatorio{
    __
    {static} +getAleatorio():int
}

class NumeroRacional {
    -numerador:int 
    -denominador:int
    __
    +NumeroRacional()
    +NumeroRacional(int int)
    -getMDC(int int):int
    -simplificar():void
    +soma(NumeroRacional):void
    +getString():String

}

class MatrizRacional {
    -matriz[][]:NumeroRacional
    -{static}tamanho:int
    __
    +Matriz()
    +Matriz(int int)
    +soma():void
    +imprimir():void
    +preencherAleatorio():void
}

@enduml

PlantUML version 1.2018.03(Thu Apr 05 13:59:15 BRT 2018)
(GPL source distribution)
Java Runtime: Java(TM) SE Runtime Environment
JVM: Java HotSpot(TM) Client VM
Java Version: 1.8.0_171-b11
Operating System: Windows 10
OS Version: 10.0
Default Encoding: Cp1252
Language: pt
Country: BR
--></g></svg>